<?xml version="1.0" encoding="UTF-8" standalone="no"?>
<!-- Created with Inkscape (http://www.inkscape.org/) -->

<svg
   xmlns:dc="http://purl.org/dc/elements/1.1/"
   xmlns:cc="http://creativecommons.org/ns#"
   xmlns:rdf="http://www.w3.org/1999/02/22-rdf-syntax-ns#"
   xmlns:svg="http://www.w3.org/2000/svg"
   xmlns="http://www.w3.org/2000/svg"
   xmlns:sodipodi="http://sodipodi.sourceforge.net/DTD/sodipodi-0.dtd"
   xmlns:inkscape="http://www.inkscape.org/namespaces/inkscape"
   version="1.1"
   id="svg1043"
   width="665.33331"
   height="665.33331"
   viewBox="0 0 665.33331 665.33331"
   sodipodi:docname="AppIcon.svg"
   inkscape:version="0.92.3 (2405546, 2018-03-11)">
  <metadata
     id="metadata1049">
    <rdf:RDF>
      <cc:Work
         rdf:about="">
        <dc:format>image/svg+xml</dc:format>
        <dc:type
           rdf:resource="http://purl.org/dc/dcmitype/StillImage" />
        <dc:title />
      </cc:Work>
    </rdf:RDF>
  </metadata>
  <defs
     id="defs1047" />
  <sodipodi:namedview
     pagecolor="#ffffff"
     bordercolor="#666666"
     borderopacity="1"
     objecttolerance="10"
     gridtolerance="10"
     guidetolerance="10"
     inkscape:pageopacity="0"
     inkscape:pageshadow="2"
     inkscape:window-width="1920"
     inkscape:window-height="1026"
     id="namedview1045"
     showgrid="false"
     inkscape:zoom="0.9182469"
     inkscape:cx="371.18322"
     inkscape:cy="459.72879"
     inkscape:window-x="0"
     inkscape:window-y="0"
     inkscape:window-maximized="1"
     inkscape:current-layer="svg1043" />
  <text
     xml:space="preserve"
     style="color:#000000;font-style:normal;font-variant:normal;font-weight:normal;font-stretch:normal;font-size:96px;line-height:100%;font-family:Alanus;-inkscape-font-specification:Alanus;text-indent:0;text-align:center;text-decoration:none;text-decoration-line:none;letter-spacing:0px;word-spacing:0px;text-transform:none;writing-mode:lr-tb;direction:ltr;baseline-shift:baseline;text-anchor:middle;display:inline;overflow:visible;visibility:visible;fill:#00ff00;fill-opacity:1;fill-rule:nonzero;stroke:none;stroke-width:1px;stroke-linecap:butt;stroke-linejoin:miter;stroke-opacity:1;marker:none;enable-background:accumulate"
     x="340.61404"
     y="354.42834"
     id="text1055"><tspan
       sodipodi:role="line"
       id="tspan1053"
       x="340.61404"
       y="428.90076" /></text>
  <circle
     style="opacity:1;fill:#ffffff;fill-opacity:1;fill-rule:nonzero;stroke:#000000;stroke-width:0.37795275;stroke-linecap:square;stroke-linejoin:miter;stroke-miterlimit:4;stroke-dasharray:none;stroke-dashoffset:0;stroke-opacity:1;paint-order:normal"
     id="path1063"
     cx="324.34247"
     cy="274.12106"
     inkscape:export-xdpi="90"
     inkscape:export-ydpi="90"
     r="117.5" />
  <path
     style="fill:#000000;stroke-width:1"
     d="m 316.0652,384.14756 c -0.7289,-0.10167 -3.21375,-0.39969 -5.52191,-0.66227 -19.14453,-2.17788 -38.47224,-10.24453 -54.77734,-22.86195 -4.82583,-3.73438 -14.4514,-13.35996 -18.18578,-18.18578 -12.52878,-16.19054 -20.23242,-34.53296 -22.88024,-54.47799 -0.59358,-4.47122 -0.59358,-23.51615 0,-27.98737 2.64782,-19.94504 10.35146,-38.28745 22.88024,-54.47799 3.73438,-4.82583 13.35995,-14.4514 18.18578,-18.18578 16.19054,-12.52878 34.53295,-20.23241 54.47799,-22.88024 4.47122,-0.59358 23.51614,-0.59358 27.98737,0 19.94503,2.64783 38.28745,10.35146 54.47799,22.88024 4.82582,3.73438 14.4514,13.35995 18.18578,18.18578 12.64333,16.33858 20.02844,34.0056 22.99018,54.99821 0.72658,5.14998 0.72658,21.79695 0,26.94692 -2.96174,20.99262 -10.34685,38.65964 -22.99018,54.99822 -3.73438,4.82582 -13.35996,14.4514 -18.18578,18.18578 -16.14176,12.49102 -33.80156,19.93408 -54.33559,22.90076 -3.40408,0.49181 -19.93934,0.95392 -22.30851,0.62346 z m 24.07552,-1.73424 c 2.79409,-0.41988 5.12647,-0.80297 5.18307,-0.85132 0.0566,-0.0483 -0.827,-4.76054 -1.96356,-10.47155 l -2.06648,-10.38365 -3.33746,0.6547 c -4.65336,0.91285 -22.78606,0.91241 -27.44118,-8.8e-4 l -3.34133,-0.65538 -1.92425,9.75098 c -1.05834,5.36304 -2.00417,10.06473 -2.10184,10.44821 -0.18363,0.72101 2.39921,1.25443 10.59027,2.18714 5.1176,0.58274 20.66936,0.1831 26.40276,-0.67847 z m -71.06767,-26.14217 5.8083,-8.69579 -1.11898,-0.91233 c -0.61544,-0.50178 -2.63384,-2.0818 -4.48534,-3.51117 -4.31145,-3.32845 -10.89693,-9.91394 -14.22539,-14.22539 -1.42936,-1.85149 -3.00939,-3.8699 -3.51117,-4.48533 l -0.91232,-1.11899 -8.71353,5.82015 -8.71352,5.82015 0.98822,1.41836 c 5.95475,8.54655 16.19981,19.21029 24.00627,24.98733 2.6726,1.97781 4.9065,3.59665 4.96421,3.59741 0.0577,8.9e-4 2.71868,-3.91171 5.91325,-8.6944 z m 122.53187,4.11324 c 6.67399,-4.98858 17.17722,-16.10428 22.681,-24.00358 l 0.98823,-1.41836 -8.71353,-5.82015 -8.71352,-5.82015 -0.91233,1.11899 c -0.50178,0.61543 -2.0818,2.63384 -3.51117,4.48533 -3.32845,4.31145 -9.91394,10.89694 -14.22539,14.22539 -1.8515,1.42937 -3.8699,3.00939 -4.48534,3.51117 l -1.11898,0.91233 5.82015,8.71352 5.82015,8.71353 1.41836,-0.98823 c 0.78009,-0.54352 3.00865,-2.17693 4.95237,-3.62979 z m -57.1954,0.58344 c 6.91216,-0.85883 13.10346,-2.33117 19.75685,-4.69832 1.76149,-0.62671 3.20271,-1.30679 3.20271,-1.51129 0,-0.33375 -7.35563,-18.32692 -7.76992,-19.0066 -0.094,-0.15428 -1.90445,0.31698 -4.02313,1.04725 -5.27979,1.81987 -10.94455,2.93961 -16.58957,3.27922 l -4.74884,0.2857 v 10.53457 10.53457 h 3.2143 c 1.76786,0 4.89878,-0.2093 6.9576,-0.4651 z m -39.7979,-15.93048 c 2.22759,-5.3731 3.99015,-9.79615 3.91681,-9.82899 -6.85815,-3.07143 -15.22935,-8.47407 -19.46973,-12.56546 l -1.66628,-1.60774 -7.54954,7.54954 -7.54953,7.54953 3.76321,3.29003 c 5.59881,4.89481 11.03538,8.60159 17.84869,12.16965 3.3531,1.75598 6.22247,3.1972 6.37638,3.20271 0.15391,0.006 2.10241,-4.38616 4.32999,-9.75927 z m 39.78632,-6.35296 c 10.48455,-1.56472 21.41125,-6.24181 30.03918,-12.85806 2.75965,-2.1162 9.37384,-8.70175 11.45321,-11.4036 12.88419,-16.74122 17.09682,-38.68609 11.2865,-58.79484 -2.12702,-7.36133 -6.35074,-15.69591 -11.07876,-21.86151 -2.1162,-2.75964 -8.70175,-9.37383 -11.4036,-11.4532 -11.83101,-9.10525 -25.53517,-13.76945 -40.45685,-13.76945 -14.92167,0 -28.62583,4.6642 -40.45684,13.76945 -2.70185,2.07937 -9.2874,8.69356 -11.4036,11.4532 -4.72803,6.1656 -8.95175,14.50018 -11.07877,21.86151 -3.34764,11.58575 -3.35522,25.08625 -0.0205,36.59353 7.60838,26.2549 31.16356,45.32946 58.10048,47.0487 5.77303,0.36846 9.63514,0.21785 15.01959,-0.58573 z M 320.5446,284.73053 c -4.15346,-1.27568 -7.79255,-6.30273 -7.79255,-10.76465 0,-4.58025 3.63828,-9.50111 7.97746,-10.78971 2.93613,-0.87194 4.08009,-0.87194 7.01622,0 4.33919,1.2886 7.97746,6.20946 7.97746,10.78971 0,2.71811 -1.37183,5.83144 -3.51298,7.97259 -3.24481,3.24481 -7.14907,4.17925 -11.66561,2.79206 z m 73.04605,42.67269 c 1.40067,-1.83034 3.4404,-4.71277 4.53272,-6.40541 2.18012,-3.37827 7.11896,-13.00026 6.82418,-13.29505 -0.29851,-0.29851 -19.39934,-8.17667 -19.46625,-8.02889 -3.19268,7.05127 -8.46358,15.2184 -12.56505,19.46929 l -1.60612,1.66463 7.49687,7.52846 7.49688,7.52847 2.37004,-2.5668 c 1.30353,-1.41174 3.51605,-4.06436 4.91673,-5.8947 z M 252.99423,303.29788 c 5.04742,-2.08971 9.30337,-3.87641 9.45765,-3.97046 0.15429,-0.094 -0.31697,-1.90445 -1.04725,-4.02313 -1.81986,-5.27978 -2.9396,-10.94455 -3.27921,-16.58956 l -0.2857,-4.74885 h -10.53457 -10.53457 v 3.2143 c 0,5.58156 1.27116,13.8372 3.14408,20.41948 1.34981,4.74383 3.11698,9.49768 3.53062,9.49768 0.20451,0 4.50153,-1.70976 9.54895,-3.79946 z m -25.24716,-10.3439 9.75098,-1.92426 -0.65538,-3.34132 c -0.91307,-4.65513 -0.91351,-22.78782 -6.6e-4,-27.44118 l 0.6547,-3.33747 -10.38365,-2.06647 c -5.71101,-1.13657 -10.42321,-2.02017 -10.47156,-1.96357 -0.0484,0.0566 -0.42748,2.38899 -0.84252,5.18307 -1.48437,9.99281 -1.37502,22.74635 0.28907,33.71397 0.41935,2.76389 0.6623,3.41871 1.21604,3.27769 0.3806,-0.0969 5.07994,-1.04212 10.44298,-2.10046 z m 204.64477,-1.20755 c 1.65926,-10.93665 1.76706,-23.70257 0.28443,-33.68365 -0.41505,-2.79408 -0.79418,-5.12647 -0.84253,-5.18307 -0.0483,-0.0566 -4.76054,0.827 -10.47155,1.96357 l -10.38365,2.06647 0.6547,3.33747 c 0.89902,4.5829 0.90574,22.75566 0.0101,27.413 l -0.63711,3.31314 9.95732,2.05313 c 5.47653,1.12922 10.17141,2.07346 10.43308,2.09833 0.26348,0.025 0.70753,-1.48243 0.99517,-3.37839 z m -20.68717,-20.99484 c 0,-5.58156 -1.27116,-13.8372 -3.14408,-20.41948 -1.34981,-4.74383 -3.11699,-9.49768 -3.53063,-9.49768 -0.33375,0 -18.32692,7.35563 -19.0066,7.76992 -0.15429,0.094 0.31698,1.90445 1.04725,4.02312 1.81987,5.27979 2.93961,10.94456 3.27922,16.58957 l 0.2857,4.74884 h 10.53457 10.53457 z M 265.14059,243.96555 c 2.2194,-4.59718 5.84539,-9.96799 9.64043,-14.27938 l 2.31867,-2.63414 -7.51521,-7.51521 -7.51521,-7.51521 -3.2621,3.73245 c -4.99695,5.71743 -8.89127,11.4434 -12.34769,18.15532 -1.72961,3.35867 -3.0553,6.1961 -2.94599,6.30541 0.24465,0.24465 19.01297,8.09458 19.3205,8.08087 0.12148,-0.005 1.15945,-1.95396 2.3066,-4.33011 z m 113.59567,-24.7191 7.44222,-7.4519 -3.73074,-3.26061 c -5.71575,-4.99548 -11.4423,-8.89009 -18.15362,-12.3462 -3.35866,-1.7296 -6.19618,-3.05521 -6.3056,-2.94579 -0.30781,0.3078 -8.19516,19.41132 -8.04291,19.48026 6.91718,3.13197 16.58352,9.40529 19.75911,12.8234 0.58902,0.634 1.18758,1.15273 1.33013,1.15273 0.14255,0 3.60819,-3.35335 7.70141,-7.45189 z m -125.48256,2.04042 c 4.96343,-6.67411 11.61067,-13.32066 18.30491,-18.30302 1.76149,-1.31104 3.20271,-2.47898 3.20271,-2.59543 0,-0.11645 -2.59206,-4.09238 -5.76014,-8.83539 l -5.76013,-8.62367 -1.41835,0.98823 c -10.06513,7.0128 -20.62057,17.56823 -27.63329,27.63326 l -0.98815,1.41823 8.52139,5.73248 c 4.68676,3.15287 8.66265,5.74498 8.83531,5.76025 0.17266,0.0153 1.38574,-1.41345 2.69574,-3.17494 z m 153.39678,-2.55743 8.62367,-5.76013 -0.98823,-1.41835 c -7.01285,-10.06518 -17.56819,-20.62053 -27.63337,-27.63337 l -1.41836,-0.98823 -5.76013,8.62367 c -3.16807,4.74301 -5.76013,8.71894 -5.76013,8.83539 0,0.11645 1.44122,1.28354 3.20271,2.59354 6.6741,4.96343 13.32065,11.61067 18.30302,18.30491 1.31103,1.76149 2.47897,3.20271 2.59543,3.20271 0.11645,0 4.09237,-2.59206 8.83539,-5.76014 z m -95.90484,-9.75719 c 2.19686,-0.45808 6.13128,-0.96144 8.74314,-1.11857 l 4.74884,-0.2857 v -10.53457 -10.53457 h -3.21429 c -5.58156,0 -13.8372,1.27116 -20.41948,3.14408 -4.74383,1.34981 -9.49768,3.11698 -9.49768,3.53063 0,0.33375 7.35563,18.32692 7.76992,19.00659 0.094,0.15429 1.90445,-0.31697 4.02312,-1.04725 2.11868,-0.73027 5.64957,-1.70256 7.84643,-2.16064 z m 13.49198,-23.05669 c 7.37612,0 11.3473,0.18951 13.71867,0.6547 l 3.33746,0.65471 2.06648,-10.38365 c 1.13656,-5.71101 2.02016,-10.42401 1.96356,-10.47334 -0.0566,-0.0493 -2.48838,-0.4554 -5.40394,-0.9024 -7.45949,-1.14364 -23.90496,-1.14364 -31.36445,0 -2.91557,0.447 -5.34735,0.85308 -5.40395,0.9024 -0.0566,0.0493 0.827,4.76233 1.96357,10.47334 l 2.06647,10.38365 3.33747,-0.65471 c 2.37136,-0.46519 6.34255,-0.6547 13.71866,-0.6547 z"
     id="path832"
     inkscape:connector-curvature="0" />
  <text
     xml:space="preserve"
     style="color:#000000;font-style:normal;font-variant:normal;font-weight:normal;font-stretch:normal;font-size:18.66666603px;line-height:100%;font-family:sans-serif;-inkscape-font-specification:sans-serif;text-indent:0;text-align:start;text-decoration:none;text-decoration-line:none;letter-spacing:0px;word-spacing:0px;text-transform:none;writing-mode:lr-tb;direction:ltr;baseline-shift:baseline;text-anchor:start;display:inline;overflow:visible;visibility:visible;fill:#ff0000;fill-opacity:1;fill-rule:nonzero;stroke:none;stroke-width:11.33858299;stroke-linecap:butt;stroke-linejoin:miter;stroke-miterlimit:4;stroke-dasharray:none;stroke-opacity:1;marker:none;enable-background:accumulate"
     x="242.31122"
     y="306.93356"
     id="text836"><tspan
       sodipodi:role="line"
       id="tspan834"
       x="242.31122"
       y="306.93356"
       style="font-style:normal;font-variant:normal;font-weight:normal;font-stretch:normal;font-size:96px;font-family:'Aero Matics Display';-inkscape-font-specification:'Aero Matics Display';fill:#800000;stroke:#ffffff;stroke-width:11.33858299;stroke-miterlimit:4;stroke-dasharray:none;stroke-opacity:1;paint-order:stroke markers fill">WEG</tspan></text>
</svg>
